<svg xmlns="http://www.w3.org/2000/svg" width="15" height="11" viewBox="0 0 15 11" fill="none">
  <path d="M14.75 9.51413L14.3609 9.51413C14.2653 9.07722 14.0742 8.60617 13.7874 8.101C13.5007 7.60947 13.0365 7.09064 12.3948 6.5445L9.34579 3.98553L1.9089 8.75636C1.59487 8.94751 1.34228 9.15232 1.15113 9.37077C0.959979 9.58923 0.796136 9.87595 0.659602 10.2309L0.249998 10.2309C0.277304 9.75307 0.290957 9.22058 0.290957 8.63348C0.304611 8.04638 0.311438 7.5139 0.311438 7.03603C0.311438 6.7493 0.30461 6.40114 0.290957 5.99153C0.290957 5.58193 0.277304 5.0631 0.249997 4.43504L0.659601 4.43504C0.686908 4.99483 0.762003 5.32934 0.884884 5.43857C1.02142 5.56145 1.25353 5.51366 1.58121 5.2952L6.39407 2.32557C6.7081 2.13442 6.94021 1.96375 7.09039 1.81357C7.25424 1.66338 7.36346 1.51319 7.41808 1.363C7.48635 1.21281 7.52731 1.01484 7.54096 0.769074L7.97104 0.769074C7.9847 1.36983 8.14854 1.90231 8.46257 2.36653C8.7766 2.8444 9.25447 3.36324 9.89619 3.92303L11.3503 5.13136C11.9647 5.65019 12.4903 5.95057 12.9273 6.03249C13.3778 6.12807 13.726 6.03932 13.9718 5.76625C14.2175 5.50683 14.3472 5.10406 14.3609 4.55792L14.75 4.55792C14.7363 4.89925 14.7227 5.22011 14.709 5.52049C14.709 5.83452 14.7022 6.15537 14.6886 6.48306C14.6886 6.8244 14.6886 7.19304 14.6886 7.58899C14.6886 7.98494 14.6954 8.33993 14.709 8.65396C14.7227 8.98165 14.7363 9.26837 14.75 9.51413Z" fill="#923238"/>
</svg>