<svg xmlns="http://www.w3.org/2000/svg" width="15" height="10" viewBox="0 0 15 10" fill="none">
  <path d="M0.25 0.985868L0.639124 0.985867C0.734698 1.42278 0.925847 1.89383 1.21257 2.399C1.49929 2.89053 1.96351 3.40936 2.60523 3.9555L5.65421 6.51447L13.0911 1.74364C13.4051 1.55249 13.6577 1.34768 13.8489 1.12923C14.04 0.910773 14.2039 0.62405 14.3404 0.269059L14.75 0.269059C14.7227 0.746931 14.709 1.27942 14.709 1.86652C14.6954 2.45362 14.6886 2.9861 14.6886 3.46397C14.6886 3.7507 14.6954 4.09886 14.709 4.50847C14.709 4.91807 14.7227 5.4369 14.75 6.06496L14.3404 6.06496C14.3131 5.50517 14.238 5.17066 14.1151 5.06143C13.9786 4.93855 13.7465 4.98634 13.4188 5.2048L8.60593 8.17443C8.2919 8.36558 8.05979 8.53625 7.90961 8.68643C7.74576 8.83662 7.63654 8.98681 7.58192 9.137C7.51365 9.28719 7.47269 9.48516 7.45904 9.73093L7.02896 9.73093C7.0153 9.13017 6.85146 8.59769 6.53743 8.13347C6.2234 7.6556 5.74553 7.13676 5.10381 6.57697L3.64972 5.36864C3.03531 4.84981 2.50965 4.54943 2.07274 4.46751C1.62217 4.37193 1.27401 4.46068 1.02825 4.73375C0.782485 4.99317 0.652777 5.39594 0.639124 5.94208L0.25 5.94208C0.263653 5.60075 0.277306 5.27989 0.29096 4.97951C0.29096 4.66548 0.297786 4.34463 0.31144 4.01694C0.31144 3.6756 0.31144 3.30696 0.31144 2.91101C0.31144 2.51506 0.304613 2.16007 0.29096 1.84604C0.277306 1.51835 0.263653 1.23163 0.25 0.985868Z" fill="white"/>
</svg>