<svg width="125" height="125" viewBox="0 0 125 125" fill="none" xmlns="http://www.w3.org/2000/svg">
<circle cx="60" cy="65" r="58" fill="#923238"/>
<circle cx="60" cy="65" r="58" stroke="white" stroke-width="3"/>
<path d="M60 7C92.0325 7 118 32.9675 118 65" stroke="white" stroke-width="14"/>
<path d="M18.5819 74.8721L38.4441 74.8721" stroke="white" stroke-width="0.379533"/>
<path d="M54.4451 83.5454C54.4456 83.7815 54.4804 83.9633 54.5495 84.0911C54.6186 84.2188 54.6974 84.2825 54.7859 84.2824L54.7861 84.3635L52.7723 84.3677L52.7722 84.2866C52.8656 84.2864 52.9466 84.2223 53.0152 84.0943C53.0838 83.9663 53.1178 83.7842 53.1173 83.5482L53.1095 79.8157L51.5405 84.3703L50.9282 84.3715L49.4218 80.03L49.4293 83.6296C49.4297 83.8509 49.4645 84.0181 49.5336 84.131C49.6027 84.244 49.6815 84.3004 49.77 84.3002L49.7701 84.3739L48.8629 84.3758L48.8627 84.3021C48.9561 84.3019 49.0372 84.2452 49.1058 84.1319C49.1744 84.0187 49.2085 83.8514 49.208 83.6301L49.2002 79.8681C49.1999 79.7305 49.1824 79.6125 49.1478 79.5142C49.1132 79.4159 49.0712 79.3373 49.0219 79.2784C48.9726 79.2146 48.9184 79.168 48.8593 79.1386C48.8002 79.1092 48.7486 79.0946 48.7043 79.0947L48.7042 79.0209L50.4893 79.0172L51.8102 82.8428L53.1226 79.0117L54.7749 79.0082L54.7751 79.082C54.6866 79.0822 54.608 79.1389 54.5394 79.2522C54.4708 79.3654 54.4367 79.5327 54.4372 79.754L54.4451 83.5454ZM54.7119 82.4532C54.7113 82.1679 54.7624 81.9047 54.8651 81.6636C54.9728 81.4175 55.1174 81.2057 55.299 81.0283C55.4855 80.8509 55.7041 80.7127 55.9546 80.6138C56.2101 80.51 56.483 80.4578 56.7731 80.4572C57.0632 80.4566 57.3314 80.5077 57.5774 80.6105C57.8285 80.7083 58.0451 80.8455 58.2274 81.0222C58.4098 81.1988 58.5528 81.41 58.6566 81.6557C58.7653 81.8964 58.8199 82.1594 58.8205 82.4446C58.8211 82.7249 58.7675 82.9881 58.6599 83.2342C58.5571 83.4754 58.4149 83.6847 58.2333 83.8621C58.0518 84.0395 57.8357 84.1801 57.5851 84.2839C57.3394 84.3828 57.0715 84.4325 56.7814 84.4331C56.4912 84.4337 56.2182 84.3851 55.9623 84.2873C55.7113 84.1845 55.4922 84.0448 55.3049 83.8682C55.1226 83.6915 54.9771 83.4828 54.8684 83.2421C54.7646 82.9964 54.7124 82.7335 54.7119 82.4532ZM56.0543 82.443C56.0551 82.7971 56.0729 83.0921 56.1078 83.328C56.1477 83.5591 56.1997 83.7434 56.2639 83.881C56.333 84.0136 56.4094 84.1093 56.4932 84.1682C56.5818 84.2221 56.6753 84.2489 56.7736 84.2487C56.872 84.2485 56.9629 84.2213 57.0464 84.167C57.1348 84.1078 57.2108 84.0118 57.2744 83.8788C57.3381 83.741 57.3869 83.5565 57.4208 83.3253C57.4597 83.0892 57.4787 82.7941 57.478 82.44C57.4773 82.086 57.457 81.7934 57.4172 81.5624C57.3822 81.3313 57.3327 81.1494 57.2685 81.0168C57.2043 80.8792 57.1278 80.7835 57.0392 80.7296C56.9555 80.6708 56.8645 80.6415 56.7661 80.6417C56.6678 80.6419 56.5744 80.6716 56.486 80.7308C56.4025 80.785 56.3265 80.8811 56.2579 81.0189C56.1943 81.1518 56.143 81.3339 56.1042 81.5651C56.0702 81.7963 56.0536 82.0889 56.0543 82.443ZM61.8871 81.8112C61.8226 81.4966 61.7188 81.2436 61.5758 81.0521C61.4327 80.8606 61.2752 80.765 61.1031 80.7654C60.9949 80.7656 60.8942 80.8052 60.8009 80.884C60.7125 80.9629 60.6341 81.0762 60.5655 81.2239C60.5019 81.3666 60.4531 81.5413 60.4191 81.7479C60.3851 81.9545 60.3684 82.1857 60.3689 82.4414C60.37 82.943 60.4519 83.3362 60.6148 83.6211C60.7826 83.906 60.9993 84.0481 61.2648 84.0476C61.3976 84.0473 61.5229 84.0077 61.6408 83.9288C61.7586 83.8449 61.842 83.7439 61.8909 83.6258L61.8871 81.8112ZM63.1374 83.5347C63.1375 83.6232 63.1476 83.7117 63.1674 83.8002C63.1873 83.8887 63.212 83.9697 63.2417 84.0434C63.2762 84.1122 63.3132 84.1687 63.3527 84.2129C63.397 84.2521 63.4413 84.2717 63.4856 84.2716L63.4857 84.3454L61.8924 84.3487L61.8917 83.9946C61.7101 84.1474 61.5111 84.2585 61.2949 84.3278C61.0787 84.3922 60.8599 84.4246 60.6386 84.4251C60.4124 84.4255 60.2008 84.3842 60.004 84.301C59.812 84.2129 59.6445 84.0878 59.5016 83.9258C59.3586 83.7589 59.2451 83.5576 59.161 83.3217C59.0818 83.0809 59.0419 82.8105 59.0413 82.5105C59.0407 82.2056 59.0819 81.9277 59.165 81.6767C59.248 81.4258 59.3656 81.2091 59.5177 81.0269C59.6697 80.8446 59.8514 80.7041 60.0627 80.6053C60.2788 80.5016 60.5197 80.4494 60.7852 80.4489C61.036 80.4484 61.25 80.4922 61.4272 80.5803C61.6045 80.6685 61.7572 80.7911 61.8853 80.9482L61.8828 79.7089C61.8826 79.6155 61.8726 79.527 61.8527 79.4435C61.8329 79.355 61.8056 79.2788 61.7711 79.215C61.7414 79.1462 61.7044 79.0922 61.6601 79.0529C61.6207 79.0087 61.5788 78.9867 61.5346 78.9868L61.5344 78.913C61.8098 78.8928 62.0826 78.8578 62.353 78.808C62.6233 78.7583 62.8519 78.6914 63.0386 78.6075L63.1271 78.6073L63.1374 83.5347ZM66.8106 83.7262C66.8107 83.8098 66.8232 83.8762 66.8479 83.9253C66.8775 83.9695 66.9218 83.9915 66.9808 83.9914C67.0201 83.9913 67.0545 83.9814 67.084 83.9617C67.1184 83.9419 67.1502 83.9001 67.1796 83.8361L67.2534 83.8359C67.2537 84.0031 67.1778 84.141 67.0256 84.2495C66.8783 84.358 66.6915 84.4125 66.4653 84.4129C65.9981 84.4139 65.7102 84.2743 65.6014 83.9943C65.4886 84.142 65.3462 84.2505 65.1742 84.3197C65.0072 84.384 64.8204 84.4164 64.6138 84.4168C64.4466 84.4171 64.2868 84.3904 64.1342 84.3366C63.9866 84.2829 63.8561 84.2044 63.7428 84.1014C63.6294 83.9935 63.5382 83.8658 63.469 83.7184C63.4048 83.5661 63.3725 83.394 63.3721 83.2023C63.3715 82.9269 63.4251 82.6956 63.5329 82.5085C63.6407 82.3215 63.7756 82.1712 63.9377 82.0577C64.0997 81.9443 64.2741 81.8628 64.4609 81.8132C64.6526 81.7637 64.8296 81.7387 64.9918 81.7384C65.0951 81.7381 65.1812 81.7453 65.2501 81.7599C65.3238 81.7696 65.3829 81.7818 65.4272 81.7965C65.4764 81.816 65.5182 81.8356 65.5527 81.8552L65.5516 81.3241C65.5511 81.1127 65.5139 80.9431 65.4399 80.8154C65.3708 80.6877 65.2796 80.6239 65.1665 80.6242C64.9748 80.6246 64.8793 80.819 64.8801 81.2075C64.8804 81.3698 64.8168 81.5051 64.6891 81.6136C64.5615 81.722 64.387 81.7765 64.1658 81.777C63.9936 81.7773 63.8608 81.7333 63.7672 81.645C63.6735 81.5567 63.6266 81.4388 63.6263 81.2912C63.626 81.1585 63.6626 81.0404 63.7362 80.9369C63.8146 80.8286 63.9202 80.7374 64.0528 80.6634C64.1854 80.5893 64.3402 80.5349 64.5172 80.5001C64.699 80.4604 64.8932 80.4403 65.0998 80.4399C65.3801 80.4393 65.626 80.4806 65.8377 80.5637C66.0493 80.6469 66.2266 80.767 66.3695 80.9241C66.5174 81.0762 66.6259 81.2629 66.6953 81.484C66.7695 81.7002 66.8069 81.9436 66.8074 82.214L66.8106 83.7262ZM65.5537 82.3347C65.5535 82.2511 65.5288 82.1724 65.4794 82.0988C65.435 82.0251 65.3587 81.9884 65.2505 81.9886C65.0784 81.989 64.9385 82.0975 64.8307 82.3141C64.723 82.5257 64.6695 82.8307 64.6704 83.2291C64.6709 83.4749 64.7155 83.6642 64.8043 83.7968C64.8931 83.9294 64.999 83.9955 65.1219 83.9953C65.294 83.9949 65.439 83.9184 65.5567 83.7657L65.5537 82.3347ZM68.9737 80.6162C68.8852 80.6164 68.8066 80.651 68.7379 80.72C68.6692 80.789 68.635 80.8874 68.6353 81.0153C68.6356 81.1775 68.6851 81.32 68.7837 81.4428C68.8823 81.5655 69.0055 81.6784 69.1532 81.7813C69.3009 81.8794 69.461 81.9774 69.6333 82.0754C69.8056 82.1685 69.9656 82.2714 70.1134 82.3842C70.2611 82.4921 70.3843 82.6172 70.483 82.7596C70.5816 82.8971 70.6311 83.0593 70.6315 83.2462C70.6319 83.4133 70.5904 83.5683 70.5071 83.7111C70.4287 83.8539 70.3159 83.9771 70.1686 84.0807C70.0212 84.1842 69.8468 84.2657 69.6453 84.3252C69.4488 84.3797 69.2324 84.4072 68.9964 84.4077C68.7603 84.4081 68.5415 84.3889 68.3398 84.35C68.1381 84.316 67.9609 84.2623 67.8083 84.1888C67.6606 84.1105 67.5424 84.0124 67.4537 83.8945C67.3698 83.7767 67.3277 83.6391 67.3274 83.4817C67.327 83.3145 67.3808 83.1693 67.4888 83.0462C67.6016 82.923 67.7441 82.8612 67.9162 82.8609C68.0588 82.8606 68.1695 82.8948 68.2484 82.9634C68.3272 83.0272 68.3864 83.1107 68.4259 83.2139C68.4704 83.317 68.5026 83.4276 68.5225 83.5456C68.5473 83.6587 68.5746 83.7668 68.6043 83.87C68.639 83.9732 68.6834 84.0592 68.7376 84.1279C68.7968 84.1917 68.8829 84.2235 68.996 84.2232C69.114 84.223 69.2049 84.1958 69.2688 84.1415C69.3375 84.0873 69.3717 84.0036 69.3715 83.8905C69.3712 83.7332 69.3217 83.5956 69.2231 83.4778C69.1245 83.355 68.9989 83.2397 68.8462 83.1318C68.6985 83.024 68.5384 82.9186 68.3661 82.8157C68.1937 82.7128 68.0312 82.6 67.8785 82.4774C67.7307 82.3547 67.6075 82.2198 67.5089 82.0724C67.4102 81.9202 67.3607 81.7457 67.3602 81.549C67.3599 81.3966 67.399 81.2539 67.4774 81.1209C67.5607 80.9831 67.6735 80.8648 67.816 80.7662C67.9583 80.6626 68.1254 80.5811 68.317 80.5217C68.5136 80.4623 68.725 80.4323 68.9512 80.4319C69.4725 80.4308 69.8735 80.5209 70.1541 80.7023C70.4397 80.8787 70.5828 81.1095 70.5834 81.3948C70.5837 81.5521 70.5324 81.6776 70.4293 81.7713C70.3262 81.8649 70.1886 81.9119 70.0165 81.9123C69.8788 81.9126 69.7681 81.8809 69.6844 81.8171C69.6056 81.7533 69.539 81.6748 69.4847 81.5815C69.4353 81.4832 69.3958 81.3776 69.366 81.2645C69.3412 81.1515 69.3115 81.0483 69.2769 80.9549C69.2472 80.8566 69.2101 80.7756 69.1657 80.7117C69.1213 80.6479 69.0573 80.616 68.9737 80.6162Z" fill="white"/>
<path d="M25.571 69.2212C25.571 70.202 25.7141 70.9581 26.0002 71.4894C26.2863 72.0207 26.6132 72.2864 26.981 72.2864V72.6235H18.613V72.2864C19.0013 72.2864 19.3385 72.0207 19.6246 71.4894C19.9106 70.9581 20.0537 70.202 20.0537 69.2212V53.466C20.0537 52.5465 19.9106 51.8517 19.6246 51.3817C19.3385 50.9117 19.0013 50.6767 18.613 50.6767V50.3702H26.981V50.6767C26.6132 50.6767 26.2863 50.9117 26.0002 51.3817C25.7141 51.8517 25.571 52.5465 25.571 53.466V61.9566L32.2838 53.8032C32.6721 53.3332 32.9275 52.9041 33.0501 52.5158C33.1932 52.1275 33.2443 51.8006 33.2034 51.5349C33.183 51.2489 33.091 51.0343 32.9275 50.8913C32.7641 50.7482 32.5904 50.6767 32.4065 50.6767V50.3702H37.7399V50.6767C37.0247 50.6767 36.3299 50.9628 35.6556 51.5349C35.0017 52.0867 34.2864 52.8428 33.5099 53.8032L29.7704 58.3397L36.3299 70.1407C36.4525 70.3655 36.5956 70.6107 36.759 70.8764C36.943 71.1216 37.1371 71.3566 37.3414 71.5814C37.5458 71.7857 37.7706 71.9594 38.0158 72.1025C38.261 72.2455 38.5266 72.317 38.8127 72.317V72.6235H29.3106V72.317C29.8419 72.317 30.1484 72.0514 30.2302 71.5201C30.3119 70.9888 30.0973 70.2633 29.5865 69.3438L26.0002 62.9375L25.571 63.4586V69.2212ZM41.9658 63.7038C42.068 65.6655 42.5482 67.1675 43.4065 68.2096C44.2851 69.2518 45.4193 69.7729 46.8088 69.7729C47.0949 69.7729 47.473 69.7525 47.943 69.7116C48.413 69.6503 48.8932 69.5072 49.3836 69.2825C49.874 69.0577 50.3338 68.7307 50.7629 68.3016C51.1921 67.852 51.4884 67.2288 51.6518 66.4318H51.9584C51.8766 67.474 51.6314 68.4038 51.2227 69.2212C50.8345 70.0181 50.3236 70.6925 49.6901 71.2442C49.0566 71.7959 48.321 72.2148 47.4832 72.5009C46.6454 72.787 45.736 72.9301 44.7551 72.9301C43.5699 72.9301 42.4767 72.7257 41.4754 72.317C40.4945 71.9083 39.6465 71.3362 38.9313 70.6005C38.216 69.8649 37.6541 68.9862 37.2454 67.9644C36.8571 66.9427 36.663 65.8188 36.663 64.5927C36.663 63.3666 36.8469 62.2529 37.2147 61.2516C37.603 60.2503 38.1343 59.3921 38.8087 58.6769C39.5034 57.9617 40.3208 57.4099 41.2608 57.0217C42.2212 56.613 43.2736 56.4086 44.418 56.4086C45.4601 56.4086 46.4308 56.5823 47.3299 56.9297C48.2495 57.2567 49.0464 57.7267 49.7208 58.3397C50.3951 58.9323 50.9264 59.6373 51.3147 60.4547C51.7029 61.2516 51.8971 62.1201 51.8971 63.0601V63.7038H41.9658ZM46.8395 62.9681C46.7782 61.1699 46.5432 59.7599 46.1345 58.7382C45.7258 57.696 45.1945 57.1749 44.5406 57.1749C44.1523 57.1749 43.8049 57.3282 43.4984 57.6347C43.1919 57.9412 42.9262 58.3601 42.7015 58.8914C42.4767 59.4227 42.303 60.046 42.1804 60.7612C42.0578 61.456 41.976 62.1916 41.9352 62.9681H46.8395ZM67.5682 56.7151H70.8173V57.4814H67.5682V69.2518C67.5682 69.6196 67.609 69.9875 67.6908 70.3553C67.7725 70.7231 67.8747 71.0603 67.9973 71.3668C68.1403 71.6529 68.2936 71.8879 68.4571 72.0718C68.641 72.2353 68.8249 72.317 69.0088 72.317V72.6235H60.9167V72.317C61.1006 72.317 61.2743 72.2353 61.4377 72.0718C61.6217 71.8879 61.7749 71.6631 61.8975 71.3975C62.0406 71.1114 62.153 70.7946 62.2347 70.4472C62.3164 70.0794 62.3573 69.7218 62.3573 69.3744V57.4814H58.3112V69.2518C58.3112 69.6196 58.3521 69.9875 58.4338 70.3553C58.5156 70.7231 58.6178 71.0603 58.7404 71.3668C58.8834 71.6529 59.0367 71.8879 59.2001 72.0718C59.3841 72.2353 59.568 72.317 59.7519 72.317V72.6235H51.6598V72.317C51.8437 72.317 52.0174 72.2353 52.1808 72.0718C52.3647 71.8879 52.518 71.6631 52.6406 71.3975C52.7837 71.1114 52.896 70.7946 52.9778 70.4472C53.0595 70.0794 53.1004 69.7218 53.1004 69.3744V57.4814H51.9969V56.7151H53.1004V56.1327C53.1004 54.1506 53.6521 52.6384 54.7556 51.5962C55.8591 50.5541 57.4734 50.033 59.5986 50.033C60.5795 50.033 61.4377 50.176 62.1734 50.4621C62.909 50.7482 63.5323 51.116 64.0432 51.5656C65.1262 50.5439 66.6997 50.033 68.7636 50.033C69.6014 50.033 70.3575 50.125 71.0318 50.3089C71.7266 50.4928 72.3192 50.7482 72.8096 51.0752C73.3001 51.4021 73.6781 51.8006 73.9438 52.2706C74.2299 52.7202 74.3729 53.2208 74.3729 53.7725C74.3729 54.4265 74.1379 54.9578 73.6679 55.3664C73.2183 55.7751 72.6257 55.9795 71.8901 55.9795C71.1953 55.9795 70.6538 55.7854 70.2655 55.3971C69.8977 54.9884 69.7138 54.4571 69.7138 53.8032C69.7138 53.0062 69.6423 52.3115 69.4992 51.7189C69.3766 51.1058 69.1314 50.7993 68.7636 50.7993C67.9666 50.7993 67.5682 51.6678 67.5682 53.4047V56.7151ZM58.3112 56.7151H62.3573V56.1327C62.3573 55.3971 62.296 54.7125 62.1734 54.0791C62.0508 53.4252 61.8771 52.8632 61.6523 52.3932C61.4275 51.9028 61.1619 51.5145 60.8554 51.2284C60.5488 50.9423 60.2014 50.7993 59.8132 50.7993C59.2819 50.7993 58.8936 51.0036 58.6484 51.4123C58.4236 51.821 58.3112 52.4852 58.3112 53.4047V56.7151ZM84.8317 70.0794C84.8317 70.4268 84.8828 70.7027 84.985 70.907C85.1076 71.0909 85.2915 71.1829 85.5367 71.1829C85.7002 71.1829 85.8432 71.142 85.9658 71.0603C86.1089 70.9785 86.2417 70.8048 86.3643 70.5392H86.6708C86.6708 71.234 86.3541 71.8061 85.7206 72.2557C85.1076 72.7053 84.3311 72.9301 83.3911 72.9301C81.4498 72.9301 80.2543 72.3477 79.8048 71.1829C79.3348 71.7959 78.7422 72.2455 78.027 72.5316C77.3322 72.7972 76.5557 72.9301 75.6974 72.9301C75.0026 72.9301 74.3385 72.8177 73.705 72.5929C73.092 72.3681 72.5505 72.0411 72.0805 71.612C71.6105 71.1625 71.2324 70.6312 70.9463 70.0181C70.6807 69.3846 70.5479 68.6694 70.5479 67.8725C70.5479 66.7281 70.7726 65.7677 71.2222 64.9912C71.6718 64.2147 72.2337 63.5914 72.9081 63.1214C73.5824 62.6514 74.3078 62.3142 75.0844 62.1099C75.8813 61.9055 76.617 61.8034 77.2913 61.8034C77.7204 61.8034 78.078 61.834 78.3641 61.8953C78.6706 61.9362 78.9159 61.9873 79.0998 62.0486C79.3041 62.1303 79.4778 62.2121 79.6209 62.2938V60.0869C79.6209 59.2082 79.4676 58.5032 79.1611 57.9719C78.875 57.4406 78.497 57.1749 78.027 57.1749C77.23 57.1749 76.8315 57.9821 76.8315 59.5964C76.8315 60.2708 76.5659 60.8327 76.0346 61.2823C75.5033 61.7318 74.7778 61.9566 73.8583 61.9566C73.1431 61.9566 72.5913 61.7727 72.2031 61.4049C71.8148 61.0371 71.6207 60.5466 71.6207 59.9336C71.6207 59.3819 71.7739 58.8914 72.0805 58.4623C72.4074 58.0127 72.8468 57.6347 73.3985 57.3282C73.9502 57.0217 74.5939 56.7969 75.3296 56.6538C76.0857 56.4904 76.8928 56.4086 77.7511 56.4086C78.9159 56.4086 79.9376 56.5823 80.8163 56.9297C81.695 57.2771 82.4306 57.7777 83.0232 58.4316C83.6363 59.0651 84.0858 59.8416 84.3719 60.7612C84.6784 61.6603 84.8317 62.6718 84.8317 63.7958V70.0794ZM79.6209 64.2862C79.6209 63.9388 79.5187 63.6118 79.3143 63.3053C79.1304 62.9988 78.8137 62.8455 78.3641 62.8455C77.6489 62.8455 77.0665 63.2951 76.617 64.1942C76.1674 65.0729 75.9426 66.3399 75.9426 67.9951C75.9426 69.0168 76.1265 69.8035 76.4944 70.3553C76.8622 70.907 77.3015 71.1829 77.8124 71.1829C78.5276 71.1829 79.1304 70.8662 79.6209 70.2327V64.2862ZM93.8475 57.1749C93.4796 57.1749 93.1527 57.318 92.8666 57.604C92.5805 57.8901 92.4375 58.2988 92.4375 58.8301C92.4375 59.5045 92.6418 60.0971 93.0505 60.6079C93.4592 61.1188 93.9701 61.5888 94.5831 62.0179C95.1962 62.4266 95.8603 62.8353 96.5755 63.244C97.2907 63.6323 97.9548 64.0614 98.5679 64.5314C99.1809 64.981 99.6918 65.502 100.1 66.0947C100.509 66.6668 100.714 67.3412 100.714 68.1177C100.714 68.8125 100.54 69.4562 100.192 70.0488C99.8655 70.6414 99.3955 71.1522 98.7824 71.5814C98.1694 72.0105 97.444 72.3477 96.6062 72.5929C95.7888 72.8177 94.8896 72.9301 93.9088 72.9301C92.9279 72.9301 92.0186 72.8483 91.1807 72.6848C90.3429 72.5418 89.6073 72.317 88.9738 72.0105C88.3608 71.6835 87.8703 71.2748 87.5025 70.7844C87.1551 70.294 86.9814 69.7218 86.9814 69.0679C86.9814 68.3731 87.2062 67.7703 87.6558 67.2594C88.1258 66.7486 88.7184 66.4931 89.4336 66.4931C90.0262 66.4931 90.486 66.6362 90.8129 66.9223C91.1399 67.1879 91.3851 67.5353 91.5486 67.9644C91.7325 68.3936 91.8653 68.8533 91.947 69.3438C92.0492 69.8138 92.1616 70.2633 92.2842 70.6925C92.4273 71.1216 92.6112 71.4792 92.836 71.7653C93.0812 72.0309 93.4388 72.1638 93.9088 72.1638C94.3992 72.1638 94.7772 72.0514 95.0429 71.8266C95.329 71.6018 95.472 71.2544 95.472 70.7844C95.472 70.1305 95.2677 69.5583 94.859 69.0679C94.4503 68.557 93.9292 68.0768 93.2957 67.6273C92.6827 67.1777 92.0186 66.7383 91.3034 66.3092C90.5881 65.8801 89.9138 65.4101 89.2803 64.8992C88.6673 64.3884 88.1564 63.8264 87.7477 63.2134C87.339 62.5799 87.1347 61.8545 87.1347 61.0371C87.1347 60.4036 87.2982 59.811 87.6251 59.2593C87.9725 58.6871 88.4425 58.1966 89.0351 57.788C89.6277 57.3588 90.3225 57.0217 91.1194 56.7764C91.9368 56.5312 92.8155 56.4086 93.7555 56.4086C95.9216 56.4086 97.587 56.7867 98.7518 57.5427C99.937 58.2784 100.53 59.2388 100.53 60.424C100.53 61.0779 100.315 61.599 99.8859 61.9873C99.4568 62.3755 98.8846 62.5697 98.1694 62.5697C97.5972 62.5697 97.1375 62.4368 96.7901 62.1712C96.4631 61.9055 96.1872 61.5786 95.9625 61.1903C95.7581 60.7816 95.5946 60.3423 95.472 59.8723C95.3699 59.4023 95.2472 58.9732 95.1042 58.5849C94.9816 58.1762 94.8283 57.839 94.6444 57.5734C94.4605 57.3077 94.1949 57.1749 93.8475 57.1749Z" fill="white"/>
</svg>
